<svg id="Capa_1" enable-background="new 0 0 512 512" height="512" viewBox="0 0 512 512" width="512" xmlns="http://www.w3.org/2000/svg"><g><g><circle cx="405.507" cy="250.984" fill="#ffbf9e" r="37.17"/></g><g><circle cx="106.489" cy="250.984" fill="#f7ab8b" r="37.17"/></g><g><path d="m153.914 512c-12.946 0-22.765-11.815-20.235-24.511 11.387-57.149 61.824-100.218 122.321-100.218s110.934 43.069 122.322 100.219c2.53 12.696-7.29 24.511-20.235 24.511h-204.173z" fill="#b49cdc"/></g><g><path d="m281.747 389.954c-8.309-1.756-16.921-2.684-25.747-2.684-60.368 0-110.877 43.15-122.307 100.207-2.543 12.699 7.282 24.523 20.233 24.523h28.854c0-59.921 42.52-110.136 98.967-122.046z" fill="#908cd6"/></g><g><path d="m256 442.284c23.155 0 41.927-18.771 41.927-41.927 0-2.029-.152-4.021-.431-5.973-2.476-.876-4.981-1.677-7.523-2.395-10.801-3.068-22.197-4.719-33.973-4.719-14.541 0-28.507 2.512-41.495 7.111-.279 1.953-.431 3.946-.431 5.976-.001 23.156 18.771 41.927 41.926 41.927z" fill="#ffe4c2"/></g><g><path d="m443.078 294.549c0-21.684-17.578-39.262-39.262-39.262v-21.302l-1.415-20.543c-9.999-71.913-71.735-127.274-146.401-127.274s-136.402 55.36-146.401 127.274l-1.415 20.543v21.302c-21.684 0-39.262 17.578-39.262 39.262 0 17.222 11.094 31.844 26.521 37.136-3.947 6.123-6.246 13.408-6.246 21.235 0 21.224 16.843 38.503 37.89 39.227-.979 3.43-1.514 7.046-1.514 10.79 0 21.684 17.578 39.262 39.262 39.262 2.67 0 5.276-.269 7.796-.777 6.697 12.073 19.567 20.249 34.352 20.249 7.021 0 13.607-1.852 19.31-5.081 7.2 8.329 17.833 13.607 29.707 13.607s22.507-5.278 29.707-13.607c5.703 3.229 12.288 5.081 19.31 5.081 14.785 0 27.655-8.176 34.352-20.249 2.52.508 5.126.777 7.796.777 21.684 0 39.262-17.578 39.262-39.262 0-3.744-.535-7.361-1.514-10.79 21.047-.724 37.89-18.004 37.89-39.227 0-7.827-2.299-15.112-6.246-21.235 15.427-5.292 26.521-19.914 26.521-37.136z" fill="#fcf2d0"/></g><g><path d="m226.305 456.604c-4.99-7.339-7.908-16.199-7.908-25.742 0-7.561 1.842-14.687 5.084-20.974-24.825-.567-44.779-20.854-44.779-45.816 0-25.318 20.525-45.843 45.843-45.843v-228.699c-59.978 13-106.392 62.396-114.945 123.912l-1.415 20.543v21.302c-21.684 0-39.262 17.578-39.262 39.262 0 17.222 11.094 31.844 26.521 37.136-3.946 6.123-6.246 13.409-6.246 21.235 0 21.224 16.843 38.503 37.89 39.227-.979 3.43-1.514 7.046-1.514 10.79 0 21.684 17.578 39.262 39.262 39.262 2.67 0 5.276-.269 7.796-.777 6.697 12.073 19.567 20.249 34.352 20.249 7.021 0 13.607-1.852 19.31-5.081.003.006.007.01.011.014z" fill="#efdfb4"/></g><g><path d="m144.458 265.909c0 32.933 26.698 59.631 59.631 59.631h103.822c32.933 0 59.631-26.698 59.631-59.631 0-32.933-26.698-59.631-59.631-59.631h-103.822c-32.933 0-59.631 26.698-59.631 59.631z" fill="#ffd4be"/></g><g><path d="m221.726 265.909c0-32.933 26.698-59.631 59.631-59.631h-77.268c-32.933 0-59.631 26.698-59.631 59.631 0 32.933 26.698 59.631 59.631 59.631h77.268c-32.933 0-59.631-26.698-59.631-59.631z" fill="#ffbf9e"/></g><g><g><path d="m191.667 283.711c-4.142 0-7.5-3.358-7.5-7.5v-12.362c0-4.142 3.358-7.5 7.5-7.5s7.5 3.358 7.5 7.5v12.362c0 4.142-3.358 7.5-7.5 7.5z" fill="#4e5660"/></g><g><path d="m320.333 283.711c-4.142 0-7.5-3.358-7.5-7.5v-12.362c0-4.142 3.358-7.5 7.5-7.5s7.5 3.358 7.5 7.5v12.362c0 4.142-3.357 7.5-7.5 7.5z" fill="#4e5660"/></g></g><g><g><path d="m196.746 361.594c-14.133 0-24.125-13.925-19.5-27.28 11.298-32.62 42.291-56.042 78.754-56.042s67.456 23.422 78.754 56.042c4.625 13.355-5.367 27.28-19.5 27.28z" fill="#fff"/></g></g><g><path d="m256 0c47.936 0 216.338 82.162 216.338 118.46s-216.338 33.93-216.338 33.93z" fill="#908cd6"/></g><g><path d="m414.456 116.623c-12.045-26.476-28.646-51.853-49.34-75.425-2.147-2.446-4.367-4.893-6.64-7.33-41.141-19.437-82.387-33.868-102.476-33.868v152.39s104.719 1.146 168.442-10.381c-2.834-8.497-6.155-16.965-9.986-25.386z" fill="#6c6cc1"/></g><g><path d="m256 0c-29.695 0-149.511 92.962-149.511 213.814h149.511 149.511c0-120.852-119.816-213.814-149.511-213.814z" fill="#908cd6"/></g><g><path d="m224.789 13.303c-46.201 29.804-118.3 106.759-118.3 200.511h134.091v-32.502c-36.413-24.718-62.09-136.862-15.791-168.009z" fill="#6c6cc1"/></g><g><path d="m451.734 222.519h-391.468c-11.379 0-20.604-9.225-20.604-20.604 0-11.379 9.225-20.604 20.604-20.604h391.469c11.379 0 20.604 9.225 20.604 20.604-.001 11.38-9.226 20.604-20.605 20.604z" fill="#b49cdc"/></g><g><path d="m219.977 201.915c0-11.379 9.225-20.604 20.604-20.604h-180.315c-11.379 0-20.604 9.225-20.604 20.604s9.225 20.604 20.604 20.604h180.314c-11.379 0-20.603-9.224-20.603-20.604z" fill="#908cd6"/></g></g></svg>