<?xml version="1.0" encoding="iso-8859-1"?>
<!-- Generator: Adobe Illustrator 16.0.0, SVG Export Plug-In . SVG Version: 6.00 Build 0)  -->
<!DOCTYPE svg PUBLIC "-//W3C//DTD SVG 1.1//EN" "http://www.w3.org/Graphics/SVG/1.1/DTD/svg11.dtd">
<svg version="1.1" id="Capa_1" xmlns="http://www.w3.org/2000/svg" xmlns:xlink="http://www.w3.org/1999/xlink" x="0px" y="0px"
	 width="354.691px" height="354.691px" viewBox="0 0 354.691 354.691" style="enable-background:new 0 0 354.691 354.691;"
	 xml:space="preserve">
<g>
	<g>
		<path fill='#718093' d="M219.408,292.268h-0.458c-21.162,6.725-67.106,7.682-87.689,0h-0.158c-5.717,0-10.39,4.15-10.39,9.224l10.393,43.981
			c0,5.074,4.676,9.219,10.39,9.219h67.521c5.712,0,10.386-4.145,10.386-9.219l10.396-43.981
			C229.795,296.418,225.119,292.268,219.408,292.268z"/>
		<path fill='#718093' d="M191.333,0.039C182.188,0,166.078,0,166.078,0C82.349,4.46,46.495,59.34,53.129,120.865
			c4.418,40.945,33.478,93.221,69.57,126.857c5.377,5.137,3.487,11.537,8.639,14.985v18.771c0,1.1,0.864,2.25,1.92,2.557
			l11.832,2.766c1.082,0.197,1.967-0.541,1.967-1.641v-17.915c16.74,2.703,39.486,2.366,56.394-0.327v18.242
			c0,1.1,0.886,1.838,1.968,1.641l11.829-2.766c1.057-0.307,1.922-1.457,1.922-2.557v-18.682c4.722-3.091,2.154-9.516,7.318-14.296
			c37.467-33.882,67.794-86.84,74.312-127.636C310.499,60.134,274.363,4.736,191.333,0.039z M239.318,107.855
			c-2.779,41.063-27.831,108.88-44.212,142.767c-2.526,5.345-37.501,4.929-40.038-0.778
			c-15.322-33.639-39.214-100.929-40.253-141.988c-1.01-39.916,12.646-99.388,58.154-99.388c0,0,6.941,0,10.884,0.039
			C230.65,8.507,241.959,69.35,239.318,107.855z"/>
	</g>
</g>
<g>
</g>
<g>
</g>
<g>
</g>
<g>
</g>
<g>
</g>
<g>
</g>
<g>
</g>
<g>
</g>
<g>
</g>
<g>
</g>
<g>
</g>
<g>
</g>
<g>
</g>
<g>
</g>
<g>
</g>
</svg>
